<svg width="78" height="78" viewBox="0 0 78 78" fill="none" xmlns="http://www.w3.org/2000/svg">
<path d="M37.2639 2.84269C42.913 7.72939 47.1786 14.049 49.9363 20.9717C52.0846 26.3604 53.5048 32.6029 51.9836 38.3474C51.5008 40.1682 49.5986 45.9289 46.8333 43.7712C44.9006 42.2612 43.645 38.1781 45.4272 36.1698C46.8923 34.5181 48.9556 36.8379 49.7394 38.088C50.6422 39.5269 51.0124 41.1947 51.0868 42.8743C51.2366 46.2539 50.3999 49.7967 49.469 53.0241C47.3427 60.3894 43.5317 67.1806 38.3675 72.8422C37.5244 73.7676 38.4163 76.0447 39.5091 74.8472C45.1956 68.6128 49.3884 61.0445 51.5501 52.8788C52.5777 48.9973 53.5176 44.7194 52.8674 40.6998C52.5499 38.7402 51.8101 36.8637 50.5453 35.3198C49.5054 34.0516 47.7515 32.6033 45.9922 33.0553C42.4346 33.9635 42.2226 39.0833 43.1344 41.8523C44.0461 44.6213 46.8429 48.52 50.0931 45.9961C52.7584 43.9282 53.8883 39.7086 54.3283 36.525C54.8393 32.8397 54.4463 29.073 53.5746 25.4742C51.2935 16.0619 45.8397 7.06326 38.5232 0.736805C37.3794 -0.252475 36.326 2.03976 37.26 2.84994L37.2639 2.84269Z" fill="#2B4DB6"/>
<path d="M42.7675 70.9733C41.3037 72.3776 39.6156 73.3308 37.6748 73.9021L39.2169 75.0161C38.8674 72.9113 38.7195 70.8006 38.7423 68.6663C38.7563 67.3148 36.6769 66.4591 36.658 68.165C36.6332 70.5153 36.8271 72.8437 37.2115 75.1621C37.3304 75.8829 38.0314 76.4892 38.7536 76.2761C40.8568 75.657 42.7031 74.5634 44.2835 73.0468C45.1836 72.1825 43.7747 70.0056 42.7677 70.9696L42.7675 70.9733Z" fill="#2B4DB6"/>
</svg>
