<svg width="315" height="159" viewBox="0 0 315 159" fill="none" xmlns="http://www.w3.org/2000/svg">
<path d="M1.55493 157.055C1.55493 136.634 5.57706 116.414 13.3917 97.5477C21.2063 78.6815 32.6603 61.5393 47.0998 47.0998C61.5393 32.6603 78.6815 21.2063 97.5477 13.3917C116.414 5.57706 136.634 1.55493 157.055 1.55493C177.475 1.55493 197.696 5.57706 216.562 13.3917C235.428 21.2063 252.571 32.6603 267.01 47.0998C281.45 61.5393 292.904 78.6815 300.718 97.5477C308.533 116.414 312.555 136.634 312.555 157.055L281.455 157.055C281.455 140.719 278.237 124.542 271.986 109.449C265.734 94.3562 256.571 80.6425 245.019 69.0909C233.467 57.5392 219.754 48.376 204.661 42.1243C189.568 35.8726 173.391 32.6549 157.055 32.6549C140.718 32.6549 124.542 35.8726 109.449 42.1243C94.3562 48.376 80.6425 57.5392 69.0908 69.0908C57.5392 80.6425 48.376 94.3562 42.1243 109.449C35.8726 124.542 32.6549 140.718 32.6549 157.055H1.55493Z" stroke="white" stroke-opacity="0.1" stroke-width="3.11" stroke-linecap="round"/>
</svg>
